<svg xmlns="http://www.w3.org/2000/svg" viewBox="0 0 240 60" fill="none">
  <defs>
    <linearGradient id="logoGrad" x1="0%" y1="0%" x2="100%" y2="100%">
      <stop offset="0%" stop-color="#4F46E5" />
      <stop offset="50%" stop-color="#7C3AED" />
      <stop offset="100%" stop-color="#06B6D4" />
    </linearGradient>
    <filter id="glow" x="-20%" y="-20%" width="140%" height="140%">
      <feGaussianBlur stdDeviation="3" result="blur" />
      <feComposite in="SourceGraphic" in2="blur" operator="over" />
    </filter>
  </defs>
  <rect x="6" y="8" width="44" height="44" rx="12" fill="url(#logoGrad)" filter="url(#glow)" />
  <path d="M22 22h12a4 4 0 0 1 4 4v12a4 4 0 0 1-4 4H22a4 4 0 0 1-4-4V26a4 4 0 0 1 4-4z" stroke="#FFFFFF" stroke-width="2.5" stroke-linecap="round" stroke-linejoin="round" fill="none" />
  <path d="M25 22v-3a3 3 0 0 1 6 0v3" stroke="#FFFFFF" stroke-width="2.5" stroke-linecap="round" stroke-linejoin="round" />
  <circle cx="28" cy="33" r="2" fill="#FFFFFF" />
  <text x="62" y="38" font-family="system-ui, -apple-system, sans-serif" font-size="24" font-weight="800" fill="#0F172A" letter-spacing="-0.5">
    Nova<tspan fill="#4F46E5">Store</tspan>
  </text>
</svg>
